<svg width="512" height="512" xmlns="http://www.w3.org/2000/svg" viewBox="0 0 16 16">
<rect x="0" y="9" width="1" height="1" fill="rgb(221,221,221)" />
<rect x="0" y="10" width="1" height="1" fill="rgb(221,221,221)" />
<rect x="1" y="10" width="1" height="1" fill="rgb(221,221,221)" />
<rect x="0" y="11" width="1" height="1" fill="rgb(221,221,221)" />
<rect x="2" y="11" width="1" height="1" fill="rgb(221,221,221)" />
<rect x="0" y="12" width="1" height="1" fill="rgb(221,221,221)" />
<rect x="1" y="12" width="1" height="1" fill="rgb(221,221,221)" />
<rect x="2" y="12" width="1" height="1" fill="rgb(221,221,221)" />
<rect x="3" y="12" width="1" height="1" fill="rgb(221,221,221)" />
<rect x="1" y="13" width="1" height="1" fill="rgb(221,221,221)" />
<rect x="3" y="13" width="1" height="1" fill="rgb(221,221,221)" />
<rect x="5" y="13" width="1" height="1" fill="rgb(197,102,191)" />
<rect x="6" y="13" width="1" height="1" fill="rgb(197,102,191)" />
<rect x="7" y="13" width="1" height="1" fill="rgb(197,102,191)" />
<rect x="8" y="13" width="1" height="1" fill="rgb(197,102,192)" />
</svg>