<svg width="512" height="512" xmlns="http://www.w3.org/2000/svg" viewBox="0 0 16 16">
<rect x="6" y="5" width="1" height="1" fill="rgb(196,202,223)" />
<rect x="7" y="5" width="1" height="1" fill="rgb(196,202,223)" />
<rect x="8" y="5" width="1" height="1" fill="rgb(196,202,223)" />
<rect x="9" y="5" width="1" height="1" fill="rgb(196,202,223)" />
<rect x="6" y="6" width="1" height="1" fill="rgb(170,184,227)" />
<rect x="7" y="6" width="1" height="1" fill="rgb(170,184,227)" />
<rect x="8" y="6" width="1" height="1" fill="rgb(170,184,227)" />
<rect x="9" y="6" width="1" height="1" fill="rgb(170,184,227)" />
<rect x="10" y="6" width="1" height="1" fill="rgb(171,184,227)" />
<rect x="6" y="7" width="1" height="1" fill="rgb(149,168,228)" />
<rect x="7" y="7" width="1" height="1" fill="rgb(149,168,228)" />
<rect x="8" y="7" width="1" height="1" fill="rgb(149,168,228)" />
<rect x="9" y="7" width="1" height="1" fill="rgb(149,168,228)" />
<rect x="10" y="7" width="1" height="1" fill="rgb(149,168,228)" />
<rect x="6" y="8" width="1" height="1" fill="rgb(129,153,228)" />
<rect x="7" y="8" width="1" height="1" fill="rgb(129,153,228)" />
<rect x="8" y="8" width="1" height="1" fill="rgb(129,153,228)" />
<rect x="4" y="9" width="1" height="1" fill="rgb(114,141,230)" />
<rect x="6" y="9" width="1" height="1" fill="rgb(114,141,230)" />
<rect x="7" y="9" width="1" height="1" fill="rgb(113,142,230)" />
<rect x="8" y="9" width="1" height="1" fill="rgb(113,142,230)" />
<rect x="9" y="9" width="1" height="1" fill="rgb(114,141,230)" />
<rect x="5" y="10" width="1" height="1" fill="rgb(94,126,226)" />
<rect x="6" y="10" width="1" height="1" fill="rgb(94,126,226)" />
<rect x="7" y="10" width="1" height="1" fill="rgb(94,126,226)" />
<rect x="8" y="10" width="1" height="1" fill="rgb(95,126,226)" />
<rect x="6" y="11" width="1" height="1" fill="rgb(82,117,226)" />
<rect x="8" y="11" width="1" height="1" fill="rgb(82,117,226)" /></svg>