<svg width="512" height="512" xmlns="http://www.w3.org/2000/svg" viewBox="0 0 16 16">
<rect x="6" y="5" width="1" height="1" fill="rgb(199,220,164)" />
<rect x="7" y="5" width="1" height="1" fill="rgb(199,220,164)" />
<rect x="8" y="5" width="1" height="1" fill="rgb(199,220,164)" />
<rect x="9" y="5" width="1" height="1" fill="rgb(199,219,162)" />
<rect x="6" y="6" width="1" height="1" fill="rgb(199,220,164)" />
<rect x="7" y="6" width="1" height="1" fill="rgb(199,220,164)" />
<rect x="8" y="6" width="1" height="1" fill="rgb(199,220,164)" />
<rect x="9" y="6" width="1" height="1" fill="rgb(199,220,164)" />
<rect x="10" y="6" width="1" height="1" fill="rgb(199,219,162)" />
<rect x="6" y="7" width="1" height="1" fill="rgb(199,220,164)" />
<rect x="7" y="7" width="1" height="1" fill="rgb(199,220,164)" />
<rect x="8" y="7" width="1" height="1" fill="rgb(199,220,164)" />
<rect x="9" y="7" width="1" height="1" fill="rgb(199,220,164)" />
<rect x="10" y="7" width="1" height="1" fill="rgb(199,219,162)" />
<rect x="6" y="8" width="1" height="1" fill="rgb(199,220,164)" />
<rect x="7" y="8" width="1" height="1" fill="rgb(199,220,164)" />
<rect x="8" y="8" width="1" height="1" fill="rgb(199,220,164)" />
<rect x="4" y="9" width="1" height="1" fill="rgb(199,218,162)" />
<rect x="6" y="9" width="1" height="1" fill="rgb(199,220,164)" />
<rect x="7" y="9" width="1" height="1" fill="rgb(199,220,164)" />
<rect x="8" y="9" width="1" height="1" fill="rgb(199,220,164)" />
<rect x="9" y="9" width="1" height="1" fill="rgb(199,219,162)" />
<rect x="5" y="10" width="1" height="1" fill="rgb(199,218,162)" />
<rect x="6" y="10" width="1" height="1" fill="rgb(199,220,164)" />
<rect x="7" y="10" width="1" height="1" fill="rgb(199,220,164)" />
<rect x="8" y="10" width="1" height="1" fill="rgb(199,220,164)" />
<rect x="6" y="11" width="1" height="1" fill="rgb(199,219,162)" />
<rect x="8" y="11" width="1" height="1" fill="rgb(199,219,162)" /></svg>