<svg width="512" height="512" xmlns="http://www.w3.org/2000/svg" viewBox="0 0 16 16">
<rect x="6" y="5" width="1" height="1" fill="rgb(225,216,209)" />
<rect x="7" y="5" width="1" height="1" fill="rgb(225,216,209)" />
<rect x="8" y="5" width="1" height="1" fill="rgb(225,216,209)" />
<rect x="9" y="5" width="1" height="1" fill="rgb(225,216,209)" />
<rect x="6" y="6" width="1" height="1" fill="rgb(223,194,174)" />
<rect x="7" y="6" width="1" height="1" fill="rgb(223,194,174)" />
<rect x="8" y="6" width="1" height="1" fill="rgb(223,194,174)" />
<rect x="9" y="6" width="1" height="1" fill="rgb(223,194,174)" />
<rect x="10" y="6" width="1" height="1" fill="rgb(223,194,174)" />
<rect x="6" y="7" width="1" height="1" fill="rgb(225,176,142)" />
<rect x="7" y="7" width="1" height="1" fill="rgb(225,176,142)" />
<rect x="8" y="7" width="1" height="1" fill="rgb(225,176,142)" />
<rect x="9" y="7" width="1" height="1" fill="rgb(225,176,142)" />
<rect x="10" y="7" width="1" height="1" fill="rgb(225,176,142)" />
<rect x="6" y="8" width="1" height="1" fill="rgb(229,165,122)" />
<rect x="7" y="8" width="1" height="1" fill="rgb(229,165,122)" />
<rect x="8" y="8" width="1" height="1" fill="rgb(228,165,122)" />
<rect x="4" y="9" width="1" height="1" fill="rgb(228,149,95)" />
<rect x="6" y="9" width="1" height="1" fill="rgb(229,149,94)" />
<rect x="7" y="9" width="1" height="1" fill="rgb(229,149,94)" />
<rect x="8" y="9" width="1" height="1" fill="rgb(229,149,94)" />
<rect x="9" y="9" width="1" height="1" fill="rgb(228,149,95)" />
<rect x="5" y="10" width="1" height="1" fill="rgb(228,132,66)" />
<rect x="6" y="10" width="1" height="1" fill="rgb(228,132,66)" />
<rect x="7" y="10" width="1" height="1" fill="rgb(228,132,66)" />
<rect x="8" y="10" width="1" height="1" fill="rgb(228,132,66)" />
<rect x="6" y="11" width="1" height="1" fill="rgb(227,121,49)" />
<rect x="8" y="11" width="1" height="1" fill="rgb(227,121,49)" /></svg>