<svg width="512" height="512" xmlns="http://www.w3.org/2000/svg" viewBox="0 0 16 16">
<rect x="6" y="5" width="1" height="1" fill="rgb(219,189,202)" />
<rect x="7" y="5" width="1" height="1" fill="rgb(219,189,201)" />
<rect x="8" y="5" width="1" height="1" fill="rgb(219,189,201)" />
<rect x="9" y="5" width="1" height="1" fill="rgb(219,189,202)" />
<rect x="6" y="6" width="1" height="1" fill="rgb(222,173,194)" />
<rect x="7" y="6" width="1" height="1" fill="rgb(222,173,194)" />
<rect x="8" y="6" width="1" height="1" fill="rgb(222,173,194)" />
<rect x="9" y="6" width="1" height="1" fill="rgb(222,173,194)" />
<rect x="10" y="6" width="1" height="1" fill="rgb(222,173,193)" />
<rect x="6" y="7" width="1" height="1" fill="rgb(222,157,184)" />
<rect x="7" y="7" width="1" height="1" fill="rgb(222,157,184)" />
<rect x="8" y="7" width="1" height="1" fill="rgb(222,157,184)" />
<rect x="9" y="7" width="1" height="1" fill="rgb(222,157,184)" />
<rect x="10" y="7" width="1" height="1" fill="rgb(222,157,184)" />
<rect x="6" y="8" width="1" height="1" fill="rgb(221,144,176)" />
<rect x="7" y="8" width="1" height="1" fill="rgb(221,144,176)" />
<rect x="8" y="8" width="1" height="1" fill="rgb(221,144,176)" />
<rect x="4" y="9" width="1" height="1" fill="rgb(220,120,161)" />
<rect x="6" y="9" width="1" height="1" fill="rgb(220,120,161)" />
<rect x="7" y="9" width="1" height="1" fill="rgb(220,120,162)" />
<rect x="8" y="9" width="1" height="1" fill="rgb(220,120,162)" />
<rect x="9" y="9" width="1" height="1" fill="rgb(220,120,161)" />
<rect x="5" y="10" width="1" height="1" fill="rgb(220,108,155)" />
<rect x="6" y="10" width="1" height="1" fill="rgb(220,108,155)" />
<rect x="7" y="10" width="1" height="1" fill="rgb(220,108,155)" />
<rect x="8" y="10" width="1" height="1" fill="rgb(220,108,154)" />
<rect x="6" y="11" width="1" height="1" fill="rgb(221,96,148)" />
<rect x="8" y="11" width="1" height="1" fill="rgb(221,96,148)" /></svg>